<?xml version="1.0" encoding="UTF-8" standalone="no"?>
<!-- Created with Inkscape (http://www.inkscape.org/) -->

<svg
   width="17.021433mm"
   height="12.359009mm"
   viewBox="0 0 17.021433 12.359009"
   version="1.1"
   id="svg1"
   xml:space="preserve"
   xmlns:inkscape="http://www.inkscape.org/namespaces/inkscape"
   xmlns:sodipodi="http://sodipodi.sourceforge.net/DTD/sodipodi-0.dtd"
   xmlns="http://www.w3.org/2000/svg"
   xmlns:svg="http://www.w3.org/2000/svg"><sodipodi:namedview
     id="namedview1"
     pagecolor="#ffffff"
     bordercolor="#000000"
     borderopacity="0.25"
     inkscape:showpageshadow="2"
     inkscape:pageopacity="0.0"
     inkscape:pagecheckerboard="0"
     inkscape:deskcolor="#d1d1d1"
     inkscape:document-units="mm" /><defs
     id="defs1" /><g
     inkscape:label="Layer 1"
     inkscape:groupmode="layer"
     id="layer1"
     transform="translate(-95.745913,-131.19911)"><g
       style="fill:none;stroke:currentColor;stroke-width:2;stroke-linecap:round;stroke-linejoin:round"
       id="g2"
       transform="matrix(0.77420418,0,0,0.77420418,94.960655,128.07403)"><path
         d="M 17.5,19 H 9 a 7,7 0 1 1 6.71,-9 h 1.79 a 4.5,4.5 0 1 1 0,9 z"
         id="path1-8" /></g><g
       style="fill:none;stroke:currentColor;stroke-width:2;stroke-linecap:round;stroke-linejoin:round"
       id="g3"
       transform="matrix(0.32307233,0,0,0.32307233,98.632101,133.64904)"><rect
         width="8"
         height="18"
         x="3"
         y="3"
         rx="0.81896007"
         id="rect1"
         ry="0.81896007" /><path
         d="M 7,3 V 21"
         id="path1" /><path
         d="m 20.4,18.9 c 0.2,0.5 -0.1,1.1 -0.6,1.3 l -1.9,0.7 c -0.5,0.2 -1.1,-0.1 -1.3,-0.6 L 11.1,5.1 C 10.9,4.6 11.2,4 11.7,3.8 l 1.9,-0.7 c 0.5,-0.2 1.1,0.1 1.3,0.6 z"
         id="path2" /></g></g></svg>
